<?xml version="1.0" encoding="UTF-8"?>
<svg version="1.1" xmlns="http://www.w3.org/2000/svg" width="420" height="440">
<path d="M0 0 C138.6 0 277.2 0 420 0 C420 145.2 420 290.4 420 440 C281.4 440 142.8 440 0 440 C0 294.8 0 149.6 0 0 Z " fill="#FEFEFE" transform="translate(0,0)"/>
<path d="M0 0 C2.71176985 2.64664001 3.46998245 4.81862302 3.5625 8.5625 C3.38145709 15.03240198 0.28353877 19.60329272 -3 25 C-3.68338414 26.36676829 -4.35198824 27.74111048 -5 29.125 C-8.56186538 36.33667806 -13.52692166 42.77249461 -18.1484375 49.328125 C-20.14571812 52.21027677 -22.07385981 55.13238713 -24 58.0625 C-26.87383371 62.38976685 -29.86273268 66.54203372 -33.1015625 70.6015625 C-34.93811369 72.92181441 -36.71600864 75.28120339 -38.49291992 77.6472168 C-42.71775632 83.24395579 -47.16574639 88.4936179 -51.95507812 93.61376953 C-57.96735387 100.05884385 -63.42821098 106.9182438 -68.75 113.9375 C-71.23649186 117.17108001 -73.81242626 119.44994101 -77 122 C-78.08589488 123.3777116 -79.14549561 124.77630058 -80.1875 126.1875 C-82.72060927 129.53966602 -85.3245282 132.31358412 -88.5 135.0625 C-93.92004136 139.76042252 -98.72976097 144.94224589 -103.55859375 150.24047852 C-107.0139135 154.00173804 -110.5092799 157.41500324 -114.53051758 160.5715332 C-116.22784539 162.22148585 -116.99033097 163.87570332 -118 166 C-117.08663879 165.85920517 -116.17327759 165.71841034 -115.23223877 165.573349 C-104.7872183 164.10096233 -94.54773979 163.7059071 -84.00746918 163.69503975 C-81.09593412 163.69130894 -78.1847199 163.67440813 -75.27325439 163.65428162 C-67.00840234 163.59947455 -58.74350768 163.56817191 -50.47851562 163.54370117 C-45.38952076 163.52774057 -40.30076262 163.49745134 -35.21189117 163.45893669 C-33.29040301 163.44738117 -31.36887246 163.44135718 -29.44734955 163.44125557 C-15.75603827 163.45418578 -15.75603827 163.45418578 -2.39971924 160.64073181 C0.16214005 159.95670815 2.3605221 159.88882043 5 160 C5.33 159.01 5.66 158.02 6 157 C6.64066406 156.87882813 7.28132812 156.75765625 7.94140625 156.6328125 C16.85191969 155.50037986 16.85191969 155.50037986 24.42578125 151.5234375 C26.30524117 149.70460532 27.74749 149.26687781 30.25 148.5625 C33.3980974 147.59701499 36.10713204 146.49766667 38.9375 144.8125 C42 143 42 143 44 143 C44.20625 142.236875 44.4125 141.47375 44.625 140.6875 C46.31786841 136.14753471 48.58315276 132.10837221 50.953125 127.890625 C52.18950974 125.65775106 53.39157439 123.4077234 54.59375 121.15625 C55.54161795 119.3958071 56.48953499 117.63539064 57.4375 115.875 C57.87956787 115.0401709 58.32163574 114.2053418 58.77709961 113.34521484 C61.58544144 108.16725489 64.7239164 103.56448122 68.41381836 98.97363281 C70.24148907 96.69952322 71.91504932 94.34467732 73.5625 91.9375 C80.54123549 81.8726126 88.04828882 72.19361535 96.19360352 63.04248047 C97.32097649 61.76776736 98.44001381 60.48557363 99.54614258 59.19238281 C104.15309535 53.81912921 109.08055325 48.83579092 114.125 43.875 C120.22911741 37.94088309 120.22911741 37.94088309 125.8671875 31.57421875 C128.28022489 28.66177985 130.83519809 27.04393457 134 25 C134.763125 24.236875 135.52625 23.47375 136.3125 22.6875 C139.90607852 19.09392148 143.79767569 15.86484584 148 13 C148.66 13 149.32 13 150 13 C150.3403125 12.071875 150.3403125 12.071875 150.6875 11.125 C152.46977538 8.23941129 153.72911158 7.85327524 157 7 C160.50968654 6.60927318 163.75762635 6.37881317 167 8 C168.64661899 11.29323799 168.73894967 14.46647702 168 18 C165.625 21.1875 165.625 21.1875 163 24 C162.32650839 25.66392045 161.6590841 27.33032028 161 29 C159.66666667 30.33333333 158.33333333 31.66666667 157 33 C156.03876354 34.68681495 155.07914585 36.37460347 154.1328125 38.06982422 C152.27439859 41.23633723 150.10623556 44.16615539 147.9375 47.125 C145.11068359 50.99769648 142.39919725 54.84093314 140 59 C134.68705776 68.08390987 128.86548921 76.66800829 122.45703125 85.015625 C121.31305335 86.57364316 120.23661323 88.18127521 119.1875 89.8046875 C116.73449026 93.38783386 114.04569803 96.61315832 111.1875 99.875 C110.62635498 100.51848389 110.06520996 101.16196777 109.48706055 101.82495117 C102.84419532 109.3900561 95.96605906 116.73269531 89 124 C88.47116211 124.55220215 87.94232422 125.1044043 87.39746094 125.67333984 C81.43172548 131.87032042 81.43172548 131.87032042 79 134 C78.34 134 77.68 134 77 134 C76.79632813 134.55945313 76.59265625 135.11890625 76.3828125 135.6953125 C74.48260579 138.86232368 71.8017139 140.72348985 68.875 142.875 C68.00029053 143.5390686 68.00029053 143.5390686 67.10791016 144.21655273 C64.60310716 146.11092699 62.09189774 147.93944393 59.46875 149.66796875 C54.03005764 153.29038138 52.45293563 156.69594044 51 163 C50.67 163.99 50.34 164.98 50 166 C49.77281504 168.56634861 49.58391816 171.11678107 49.4375 173.6875 C49.39431641 174.38939453 49.35113281 175.09128906 49.30664062 175.81445312 C49.2008264 177.54275206 49.09993419 179.2713511 49 181 C51.79372585 180.93913451 54.58269512 180.85177973 57.375 180.75 C58.14972656 180.73582031 58.92445313 180.72164062 59.72265625 180.70703125 C65.26936193 180.47782854 69.48673883 179.14714211 74.56494141 176.95800781 C78.3159696 175.48226743 82.01454475 174.96781777 86 174.5 C87.33405884 174.32682251 87.33405884 174.32682251 88.69506836 174.15014648 C95.5551756 173.30324021 102.43227275 172.67737874 109.31640625 172.06640625 C110.23465179 171.98365448 111.15289734 171.90090271 112.09896851 171.81564331 C116.74366278 171.39768582 121.38864877 170.99491077 126.03710938 170.62109375 C134.8499354 169.87289679 142.91987754 168.89648637 151.28881836 165.90014648 C157.56487218 163.81641749 163.67309877 163.86611785 170.2109375 163.90234375 C171.66314194 163.90446617 171.66314194 163.90446617 173.14468384 163.90663147 C176.22148799 163.91220635 179.29821803 163.92475423 182.375 163.9375 C184.46744686 163.94251825 186.55989487 163.94708059 188.65234375 163.95117188 C193.76828035 163.96131449 198.88405769 163.98089482 204 164 C204 175.88 204 187.76 204 200 C196.18421053 203.34962406 196.18421053 203.34962406 193.125 204.125 C190.15547637 204.68110322 190.15547637 204.68110322 189 206 C187.00458104 206.22528924 185.00840136 206.44761095 183.0078125 206.62109375 C180.69284593 206.92253842 180.69284593 206.92253842 178 209 C175.89038086 209.57836914 175.89038086 209.57836914 173.46484375 210.03515625 C172.57216797 210.20466797 171.67949219 210.37417969 170.75976562 210.54882812 C169.82841797 210.71833984 168.89707031 210.88785156 167.9375 211.0625 C167.03322266 211.23587891 166.12894531 211.40925781 165.19726562 211.58789062 C153.56941997 213.75720279 142.20819475 214.21346667 130.40698242 214.24023438 C127.83544224 214.24991365 125.26471215 214.28100702 122.69335938 214.3125 C109.05484184 214.39989641 95.35776859 213.42603967 83 207 C80.62959692 204.62959692 80.65534207 203.93697247 80.5625 200.6875 C80.61914634 196.78519677 80.88112574 196.14562097 83.5 192.9375 C84.325 192.298125 85.15 191.65875 86 191 C83.69 190.67 81.38 190.34 79 190 C79 190.66 79 191.32 79 192 C71.17570144 195.19238155 64.14586743 195.48560132 55.75 195.4375 C54.49703125 195.45748047 53.2440625 195.47746094 51.953125 195.49804688 C50.7465625 195.49740234 49.54 195.49675781 48.296875 195.49609375 C47.20729492 195.49794678 46.11771484 195.4997998 44.99511719 195.50170898 C40.34944547 194.72351732 37.93356214 192.25548012 35.1875 188.5625 C32.58931772 180.76795317 33.74272862 172.01510508 35 164 C34.01 164.66 33.02 165.32 32 166 C29.3125 166.125 29.3125 166.125 27 166 C26.67 166.99 26.34 167.98 26 169 C23.12890625 169.87890625 23.12890625 169.87890625 19.5625 170.5625 C14.77418588 171.30181096 14.77418588 171.30181096 11 174 C9.08984375 174.37890625 9.08984375 174.37890625 6.9375 174.5625 C3.23263383 174.55913448 3.23263383 174.55913448 2 176 C-7.44353781 178.42515677 -17.09871357 178.30730084 -26.77130508 178.33552551 C-29.57714924 178.34395839 -32.3826895 178.36459921 -35.18844604 178.38806152 C-41.16725071 178.43593463 -47.14608739 178.46897677 -53.125 178.5 C-92.36556398 177.48430892 -92.36556398 177.48430892 -131.01272583 182.58874512 C-134.05212101 183.21773035 -136.90698935 183.13161747 -140 183 C-140.23460937 183.57105469 -140.46921875 184.14210938 -140.7109375 184.73046875 C-142.30072059 187.5294505 -144.1998374 189.1989295 -146.625 191.3125 C-147.51960938 192.09753906 -148.41421875 192.88257813 -149.3359375 193.69140625 C-150.65464844 194.83416016 -150.65464844 194.83416016 -152 196 C-152.73476562 196.64839844 -153.46953125 197.29679688 -154.2265625 197.96484375 C-159.53538264 202.64849395 -164.94957359 207.16916574 -170.5 211.5625 C-174.14023472 214.45714448 -177.68389333 217.43827216 -181.19091797 220.4909668 C-198.25851467 235.31743373 -198.25851467 235.31743373 -204.4375 235.6875 C-208 235 -208 235 -210 233.375 C-211.31934091 230.24156534 -211.39357324 228.40159731 -211 225 C-209.57134451 222.34041137 -207.75097578 220.0455078 -205.875 217.6875 C-204.85141307 216.35137115 -203.8292662 215.0141378 -202.80859375 213.67578125 C-202.3172998 213.03850098 -201.82600586 212.4012207 -201.31982422 211.74462891 C-199.75889582 209.68129292 -198.33204486 207.55372371 -196.9375 205.375 C-188.07611888 191.94327905 -179.09881988 181.54705131 -164 175 C-163.17757812 174.64292969 -162.35515625 174.28585937 -161.5078125 173.91796875 C-159.0332225 173.01216089 -156.78828443 172.56984472 -154.1875 172.1875 C-146.35442875 170.67667023 -141.25912556 166.59973907 -135.87402344 160.90576172 C-134.08201655 159.08340557 -132.22986366 157.42635522 -130.28515625 155.76953125 C-125.98837527 152.03913065 -121.94813447 148.09647473 -117.9375 144.0625 C-117.26912109 143.39798828 -116.60074219 142.73347656 -115.91210938 142.04882812 C-112.59787652 138.72815362 -109.40344258 135.3582727 -106.34375 131.80078125 C-103.61373195 128.63643337 -100.73806231 125.85230315 -97.5625 123.125 C-93.09460149 119.14807935 -89.35161485 114.99760587 -85.75390625 110.2265625 C-83.9741539 107.96718869 -82.03598894 106.02809751 -80 104 C-78.70813468 102.43377977 -77.4380114 100.8494321 -76.1875 99.25 C-71.86092542 93.79198235 -67.36773207 88.54268764 -62.62109375 83.4453125 C-57.60350278 78.03703888 -53.02725808 72.54949556 -48.7890625 66.5078125 C-46.94688712 63.9255492 -44.98593703 61.47283665 -43 59 C-38.8499182 53.43143321 -34.82399279 47.79766649 -31 42 C-30.51273438 41.33355469 -30.02546875 40.66710937 -29.5234375 39.98046875 C-23.99175805 32.36493745 -19.51041541 24.24352567 -15 16 C-15.57234375 16.32097656 -16.1446875 16.64195313 -16.734375 16.97265625 C-19.07342562 18.03329472 -20.70666271 18.28654653 -23.25 18.4375 C-27.89547754 18.86537293 -31.73034864 20.18891712 -36 22 C-36.886875 22.33 -37.77375 22.66 -38.6875 23 C-41.0545906 23.9505509 -41.0545906 23.9505509 -43.25 25.4375 C-45.69199308 26.82499607 -47.78316787 27.65079156 -50.4375 28.5 C-57.49061446 30.76996787 -63.26617947 34.39519478 -69.4140625 38.4765625 C-73.30649196 40.7696856 -76.5834824 41.18414203 -81.0625 41.3125 C-81.91972656 41.34988281 -82.77695313 41.38726562 -83.66015625 41.42578125 C-86 41 -86 41 -87.77734375 39.16796875 C-89.46367303 36.17783216 -89.56302465 34.37814787 -89 31 C-85.70397522 27.2786817 -81.88503598 26.19046174 -77.28515625 24.78515625 C-73.01716359 23.31871775 -69.20688184 21.20688184 -66 18 C-63.375 17.875 -63.375 17.875 -61 18 C-61 17.34 -61 16.68 -61 16 C-39.63844957 6.42692744 -39.63844957 6.42692744 -30.94921875 4.6171875 C-27.95617416 3.9908285 -25.03232683 3.19074081 -22.0859375 2.3762207 C-7.24597827 -1.63425049 -7.24597827 -1.63425049 0 0 Z " fill="#060606" transform="translate(216,104)"/>
<path d="M0 0 C0 1.32 0 2.64 0 4 C-2.63270639 5.53574539 -5.18503446 6.35156288 -8.125 7.0625 C-11.7679114 7.7904776 -11.7679114 7.7904776 -14 9 C-15.54023996 9.06950541 -17.08334988 9.08452357 -18.625 9.0625 C-19.85089844 9.04896484 -19.85089844 9.04896484 -21.1015625 9.03515625 C-21.72804688 9.02355469 -22.35453125 9.01195312 -23 9 C-23 9.66 -23 10.32 -23 11 C-30.47321608 13.15721701 -37.21038876 14.46530864 -45 14 C-45 14.66 -45 15.32 -45 16 C-52.89670403 17.12169091 -60.75209009 17.18615742 -68.7109375 17.18530273 C-70.99497972 17.18749518 -73.27854241 17.20572356 -75.5625 17.22460938 C-82.94958767 17.25207852 -89.84285974 17.05767783 -97 15 C-97 14.34 -97 13.68 -97 13 C-94.4392555 12.01602415 -91.87658508 11.03770033 -89.3125 10.0625 C-88.59126953 9.78470703 -87.87003906 9.50691406 -87.12695312 9.22070312 C-84.08264598 8.06692462 -81.24899471 7.04769383 -78.04296875 6.43359375 C-77.36878906 6.29050781 -76.69460938 6.14742188 -76 6 C-75.67 5.34 -75.34 4.68 -75 4 C-72.67258011 3.62761282 -70.33764285 3.30163134 -68 3 C-66.46375977 2.50234131 -66.46375977 2.50234131 -64.89648438 1.99462891 C-60.23350255 0.62818565 -55.6106932 0.64637668 -50.78125 0.5859375 C-49.3179425 0.55688828 -49.3179425 0.55688828 -47.82507324 0.5272522 C-44.71680309 0.46781644 -41.60848959 0.42136653 -38.5 0.375 C-36.44269292 0.33675768 -34.38540079 0.29770246 -32.328125 0.2578125 C-21.55144044 0.05749997 -10.77852912 -0.05787993 0 0 Z " fill="#F1F1F1" transform="translate(416,287)"/>
<path d="M0 0 C0.495 1.485 0.495 1.485 1 3 C-0.44140625 5.41796875 -0.44140625 5.41796875 -2.5625 8.1875 C-3.30371094 9.16847656 -4.04492188 10.14945313 -4.80859375 11.16015625 C-5.53175781 12.09730469 -6.25492187 13.03445312 -7 14 C-8.04402994 15.37320644 -9.0860025 16.74798198 -10.125 18.125 C-10.6096875 18.764375 -11.094375 19.40375 -11.59375 20.0625 C-13.02632658 22.03627218 -14.32171705 24.06399441 -15.625 26.125 C-22.70533121 36.82782625 -31.93361275 46.13958732 -40.74780273 55.40649414 C-44.63555216 59.49911078 -48.35920247 63.68559926 -52 68 C-52.33 67.01 -52.66 66.02 -53 65 C-51.59375 62.65234375 -51.59375 62.65234375 -49.5 59.9375 C-46.67779751 56.21889113 -43.93538611 52.48695372 -41.3125 48.625 C-38.82109264 45.03828144 -36.18368354 42.00681223 -33 39 C-31.03678671 36.64414406 -29.69249336 34.41793386 -28.25 31.6875 C-26.27320464 28.14730756 -23.77317132 25.65754273 -20.8515625 22.87890625 C-18.88843693 20.88678937 -17.24181577 18.79775363 -15.5625 16.5625 C-12.0767524 11.96194124 -8.15044236 7.99640532 -4 4 C-2.66433771 2.6689997 -1.33038022 1.33627992 0 0 Z " fill="#EDEDED" transform="translate(341,157)"/>
<path d="M0 0 C1 3 1 3 0.109375 4.82421875 C-0.33921875 5.43910156 -0.7878125 6.05398437 -1.25 6.6875 C-1.68828125 7.31011719 -2.1265625 7.93273437 -2.578125 8.57421875 C-3.04734375 9.04472656 -3.5165625 9.51523438 -4 10 C-4.99 10 -5.98 10 -7 10 C-8.66756036 11.30436727 -8.66756036 11.30436727 -10.1875 13 C-10.71730469 13.556875 -11.24710937 14.11375 -11.79296875 14.6875 C-12.19128906 15.120625 -12.58960938 15.55375 -13 16 C-13.66 15.67 -14.32 15.34 -15 15 C-10 10 -5 5 0 0 Z " fill="#CBCBCB" transform="translate(341,157)"/>
<path d="M0 0 C1.32 0.33 2.64 0.66 4 1 C1 4 -2 7 -5 10 C-4.49701212 5.59885603 -2.91227269 3.28804981 0 0 Z " fill="#BCBCBC" transform="translate(293,215)"/>
</svg>
